<svg id="Layer_1" data-name="Layer 1" xmlns="http://www.w3.org/2000/svg" viewBox="0 0 233.83 134.95"><defs><style>.cls-1{fill:#54e0ab;}</style></defs><title>Untitled-5</title><path class="cls-1" d="M160.45,43.47A43.45,43.45,0,1,1,117,0a43.45,43.45,0,0,1,43.45,43.45" transform="translate(-0.09 -0.02)"/><path d="M143.83,35l5.25-5.7H137.45a36.29,36.29,0,0,0-40.87,0H84.93L90.17,35A16,16,0,1,0,111.86,58.6L117,64.19l5.14-5.59A16,16,0,1,0,143.83,35M101,57.69a10.85,10.85,0,1,1,10.85-10.85A10.85,10.85,0,0,1,101,57.69m16-11.16c0-7.14-5.19-13.27-12-15.88a31.28,31.28,0,0,1,24.08,0c-6.85,2.62-12,8.74-12,15.88m16,11.16a10.85,10.85,0,1,1,10.85-10.85A10.85,10.85,0,0,1,133,57.69m0-16.54a5.69,5.69,0,1,0,5.68,5.69A5.69,5.69,0,0,0,133,41.15m-26.37,5.69A5.69,5.69,0,1,1,101,41.15a5.69,5.69,0,0,1,5.69,5.69" transform="translate(-0.09 -0.02)"/><path d="M27.45,107.43v-4.12H21.14v24.48h6.31V113.11c0-2.65,1.71-4,4.37-4h3.45v-5.84h-3a4.66,4.66,0,0,0-4.87,4.12" transform="translate(-0.09 -0.02)"/><rect x="37.95" y="103.29" width="6.29" height="24.48"/><path d="M61.66,102.9a12.16,12.16,0,0,0-7.43,2.48v-2.07H47.94V135h6.29v-9.26a12.16,12.16,0,0,0,7.43,2.48,12.65,12.65,0,1,0,0-25.3m-.56,19.53A6.88,6.88,0,1,1,68,115.55a6.87,6.87,0,0,1-6.87,6.88" transform="translate(-0.09 -0.02)"/><path d="M183.7,113.4l-3.67-1c-2.41-.63-3.36-1.37-3.36-2.65s1.33-2.11,3.22-2.11a3,3,0,0,1,3.21,2.69v.14h5.81v-.14c0-4.45-3.63-7.43-9-7.43s-9.22,3-9.22,7.09c0,3.2,2.12,5.61,5.81,6.61l3.52,1c2.67.73,3.67,1.56,3.67,3s-1.44,2.59-3.58,2.59a3.43,3.43,0,0,1-3.72-3.5v-.14h-6.16v.14c0,5,4,8.52,9.83,8.52,5.58,0,9.63-3.42,9.63-8.14,0-2.31-1-5.34-6-6.66" transform="translate(-0.09 -0.02)"/><path d="M96.64,105.38a12.18,12.18,0,0,0-7.43-2.48,12.65,12.65,0,0,0,0,25.3,12.18,12.18,0,0,0,7.43-2.48v2.07h6.29V103.31H96.64Zm-6.88,17.05a6.88,6.88,0,1,1,6.88-6.88h0a6.88,6.88,0,0,1-6.88,6.88" transform="translate(-0.09 -0.02)"/><path d="M125.65,105.38a12.13,12.13,0,0,0-7.42-2.48,12.65,12.65,0,1,0,0,25.3,12.13,12.13,0,0,0,7.42-2.48v2.07H132V94.6h-6.3Zm-6.87,17.05a6.88,6.88,0,1,1,6.87-6.88,6.88,6.88,0,0,1-6.87,6.88" transform="translate(-0.09 -0.02)"/><rect x="161.09" y="103.29" width="6.29" height="24.48"/><path d="M204.22,102.9a12.65,12.65,0,1,0,12.66,12.65,12.65,12.65,0,0,0-12.66-12.65m0,19.53a6.88,6.88,0,1,1,6.88-6.88,6.88,6.88,0,0,1-6.88,6.88" transform="translate(-0.09 -0.02)"/><path d="M226.1,107.43v-4.12h-6.31v24.48h6.31V113.11c0-2.65,1.7-4,4.36-4h3.45v-5.84H231a4.65,4.65,0,0,0-4.86,4.12" transform="translate(-0.09 -0.02)"/><polygon points="24.14 94.58 0 94.58 0 100.19 8.94 100.19 8.94 127.77 15.21 127.77 15.21 100.19 24.14 100.19 24.14 94.58"/><polygon points="146.24 121.06 140.65 103.29 134.04 103.29 142.43 127.77 150.01 127.77 158.45 103.29 151.84 103.29 146.24 121.06"/><path d="M45,97.49a3.84,3.84,0,1,1-3.84-3.84A3.84,3.84,0,0,1,45,97.49" transform="translate(-0.09 -0.02)"/><path d="M168.18,97.49a3.84,3.84,0,1,1-3.84-3.84,3.84,3.84,0,0,1,3.84,3.84" transform="translate(-0.09 -0.02)"/></svg>